<svg enable-background="new 0 0 512 512" viewBox="0 0 512 512" xmlns="http://www.w3.org/2000/svg"><path d="m35.5 111h88v357h-88z" fill="#5861c7"/><path d="m388.5 111h88v357h-88z" fill="#5861c7"/><path d="m426.2 171.6h-340.4c-47.386 0-85.8-38.414-85.8-85.8 0-47.386 38.414-85.8 85.8-85.8h340.4c47.386 0 85.8 38.414 85.8 85.8 0 47.386-38.414 85.8-85.8 85.8z" fill="#6770e6"/><path d="m426.2 0h-340.4c-47.386 0-85.8 38.414-85.8 85.8 0 3.388.248 6.714.63 10 4.961-42.666 41.172-75.8 85.17-75.8h340.4c43.998 0 80.208 33.134 85.17 75.8.382-3.286.63-6.611.63-10 0-47.386-38.414-85.8-85.8-85.8z" fill="#8f95e6"/><path d="m85.801 147.6c-34.076 0-61.801-27.723-61.801-61.799s27.725-61.801 61.801-61.801h340.398c34.076 0 61.801 27.725 61.801 61.801s-27.725 61.799-61.801 61.799z" fill="#339"/><circle cx="256" cy="85.8" fill="#5861c7" r="45.8"/><circle cx="256" cy="85.8" fill="#69ebfc" r="24.961"/><path d="m166 292 90-206 90 206z" fill="#a1f1fc" opacity=".8"/><circle cx="426" cy="85.8" fill="#5861c7" r="24.961"/><circle cx="90" cy="85.8" fill="#5861c7" r="24.961"/><path d="m330.07 276h-148.14c-8.798 0-15.93 7.132-15.93 15.93v160.14c0 8.798 7.132 15.93 15.93 15.93h148.14c8.798 0 15.93-7.132 15.93-15.93v-160.14c0-8.798-7.132-15.93-15.93-15.93z" fill="#ff8354"/><path d="m347.66 300.545h-1.66v30.909h1.66c17.939 0 32.534 14.595 32.534 32.534v20.023c0 17.939-14.595 32.534-32.534 32.534h-1.66v30.909h1.66c34.982 0 63.443-28.46 63.443-63.443v-20.023c0-34.982-28.461-63.443-63.443-63.443z" fill="#e0734a"/><path d="m330.07 276h-148.14c-8.798 0-15.93 7.132-15.93 15.93v20c0-8.798 7.132-15.93 15.93-15.93h148.14c8.798 0 15.93 7.132 15.93 15.93v-20c0-8.798-7.132-15.93-15.93-15.93z" fill="#ffac8c"/><path d="m489.5 468h-467c-12.15 0-22 9.85-22 22 0 12.15 9.85 22 22 22h467c12.15 0 22-9.85 22-22 0-12.15-9.85-22-22-22z" fill="#6770e6"/><path d="m489.5 492h-467c-8.548 0-15.952-4.878-19.594-12-1.535 3.001-2.406 6.398-2.406 10 0 12.15 9.85 22 22 22h467c12.15 0 22-9.85 22-22 0-3.602-.871-6.999-2.406-10-3.642 7.122-11.046 12-19.594 12z" fill="#5861c7"/><g fill="#ffefe4"><path d="m339.012 261.019-11.686-26.746c-1.326-3.037-4.863-4.423-7.9-3.096-3.036 1.327-4.422 4.864-3.096 7.9l11.686 26.746c.985 2.254 3.188 3.599 5.501 3.599.802 0 1.617-.162 2.399-.503 3.037-1.327 4.423-4.864 3.096-7.9z"/><path d="m298.993 169.419c-1.326-3.037-4.863-4.422-7.9-3.096-3.037 1.327-4.423 4.864-3.096 7.9l14.852 33.995c.985 2.255 3.188 3.599 5.501 3.599.802 0 1.617-.162 2.399-.503 3.037-1.327 4.423-4.864 3.096-7.9z"/><path d="m261.498 83.598c-.083-.19-.175-.374-.275-.551 0 0-.001-.001-.001-.002-.154-.273-.332-.524-.521-.764-.027-.033-.052-.068-.079-.101-.192-.232-.399-.446-.619-.644-.035-.032-.072-.062-.108-.093-.229-.196-.469-.377-.723-.534-.031-.019-.063-.035-.094-.053-.254-.152-.517-.285-.79-.397-.027-.011-.052-.025-.079-.036-.291-.115-.593-.202-.899-.271-.028-.006-.054-.019-.083-.025-.016-.003-.032-.002-.048-.006-.3-.061-.606-.095-.914-.109-.05-.002-.099-.005-.149-.006-.299-.006-.6.009-.902.049-.045.006-.088.014-.132.021-.5.078-.999.213-1.484.425-.091.04-.175.087-.263.131-.048.024-.096.046-.143.072-.267.141-.519.299-.756.474-.032.024-.062.049-.094.073-.507.39-.94.852-1.291 1.367-.021.031-.045.061-.066.093-.169.259-.315.531-.443.812-.012.026-.029.047-.04.073l-14.618 33.458c-1.327 3.037.06 6.573 3.096 7.9 3.037 1.327 6.574-.059 7.9-3.096l3.12-7.14v38.196c0 3.314 2.687 6 6 6s6-2.686 6-6v-38.194l8.424 19.282c.985 2.255 3.188 3.599 5.501 3.599.802 0 1.618-.162 2.399-.503 3.036-1.327 4.422-4.864 3.096-7.9z"/><path d="m196.45 222.304c-3.036-1.326-6.573.059-7.9 3.096l-15.562 35.619c-1.327 3.037.06 6.573 3.096 7.9.782.342 1.597.503 2.399.503 2.312 0 4.516-1.345 5.501-3.599l15.562-35.619c1.326-3.036-.06-6.573-3.096-7.9z"/><path d="m229.167 147.418c-3.034-1.325-6.573.06-7.9 3.096l-18.524 42.4c-1.327 3.037.06 6.574 3.096 7.9.782.342 1.597.503 2.399.503 2.312 0 4.516-1.345 5.501-3.599l18.524-42.4c1.326-3.037-.06-6.574-3.096-7.9z"/><path d="m256 199.816c-3.313 0-6 2.686-6 6v31.184c0 3.314 2.687 6 6 6s6-2.686 6-6v-31.184c0-3.314-2.687-6-6-6z"/></g><path d="m77.5 432c-9.665 0-17.5-7.835-17.5-17.5v-191c0-9.665 7.835-17.5 17.5-17.5 9.665 0 17.5 7.835 17.5 17.5v191c0 9.665-7.835 17.5-17.5 17.5z" fill="#6770e6"/><path d="m432.5 432c-9.665 0-17.5-7.835-17.5-17.5v-191c0-9.665 7.835-17.5 17.5-17.5 9.665 0 17.5 7.835 17.5 17.5v191c0 9.665-7.835 17.5-17.5 17.5z" fill="#6770e6"/></svg>