<?xml version="1.0" encoding="utf-8"?>
<!-- Generator: Adobe Illustrator 20.0.0, SVG Export Plug-In . SVG Version: 6.00 Build 0)  -->
<!DOCTYPE svg PUBLIC "-//W3C//DTD SVG 1.1//EN" "http://www.w3.org/Graphics/SVG/1.1/DTD/svg11.dtd">
<svg version="1.1" id="Layer_1" xmlns="http://www.w3.org/2000/svg" xmlns:xlink="http://www.w3.org/1999/xlink" x="0px" y="0px"
	 viewBox="0 0 633.5 100" style="enable-background:new 0 0 633.5 100;" xml:space="preserve">
<style type="text/css">
	.st0{display:none;}
	.st1{display:inline;fill:#4D4D4D;}
	.st2{display:inline;fill:#1A1A1A;}
	.st3{display:inline;fill:#808080;}
	.st4{display:inline;}
	.st5{fill:#808080;}
	.st6{display:inline;fill:#F0F0F0;}
	.st7{display:inline;fill:#B3B3B3;}
	.st8{display:inline;fill:#FFFFFF;}
	.st9{fill:#F0F0F0;}
	.st10{fill:#B3B3B3;}
</style>
<g id="Trademarks_-_vertical_logo" class="st0">
	<path class="st1" d="M369.6-32.5l-29.2-22.2c-1.4-1.1-4,0.1-4,1.8l1,67.5c0.1,5.7,3.1,10.9,8.3,13.2l45.4,20.5c4.6,2,9-1.9,8.1-6.8
		L393.5,8C390.7-8.1,382.6-22.4,369.6-32.5z M359.1,11.8l-2.6-34.6c-0.1-1.1,0.7-1.3,1.5-0.6l4.7,3.2c11.6,8.4,15,17.6,17.3,32.9
		l1.7,12.3c0.2,1-1,0.9-1.9,0.4l-18.4-9.8C360.1,14.8,359.2,13.2,359.1,11.8z"/>
	<path class="st2" d="M321.1,70.7l-43.9-11.2c-2.2-0.7-1.3-2.2,0.5-2.9l2.8-1.1c3.8-1.4,8-1.8,11.9-0.7l29.3,8.3
		c2.2,0.6,6.4,1.8,8.2,1.3l3.3-0.9c0.7-0.2,0.3-1-0.9-1.4l-27.8-8.3c-4.8-1.4-8.7-7.1,1.9-11.4l13.7-5.6c6.2-2.4,16.6-2.4,24.2,0.7
		l39.4,16c2.4,1,2.1,2.5,0.5,2.9l-9.3,2.5c-3.6,0.9-7.4,1.1-10.9-0.2l-29-10.1c-2.7-0.9-6-2.1-8.2-1.3l-2.9,1
		c-0.8,0.3-1,1.3-0.1,1.6l21.8,7.2c12,4,10.3,10.2,4.7,11.6l-9.1,2.3C333.4,73,328.1,72.4,321.1,70.7z"/>
	<path class="st3" d="M272.3-4.7L272.3-4.7c-0.3,1.6,1.3,3.3,2.6,2.3l30.8-21.1c1.1-0.7,1.6-0.3,1.5,0.9l-0.5,7.3
		c-0.1,2-1.4,3-3.1,4.1l-24.9,16c-1.5,1-2.8,2.7-3.2,4.5l-1.5,9.6c-0.1,1,1.1,1.7,2,1.2l27.6-15.9c0.6-0.3,1.5,0.3,1.5,1l-0.5,7.2
		c-0.1,1.4-1,2.5-2.2,3.2l-35,18.6c-1.9,1-2.1,2.1-2.4,3.8l-0.6,3c-0.9,5.2,3.5,9.6,8.1,7.5L318,28c5.2-2.4,8.3-8.1,8.4-13.8l1-66.5
		c0-1.8-2.7-3.4-4.1-2.3l-39.6,30C277.3-19.7,273.7-12.5,272.3-4.7z"/>
	<path class="st1" d="M331.6,20.3L331.6,20.3L331.6,20.3z"/>
	<polygon class="st2" points="315.7,106.1 307.3,106.1 296.8,125.6 286.3,106.1 277.9,106.1 292.6,134.9 292.6,154.5 301,154.5 
		301,135 301,135 301,134.9 	"/>
	<path class="st2" d="M205,147.7L205,147.7h-8.1v-34.4h8.1c3.4,0,8.4,1.1,8.6,9.3v15.8C213.4,146.6,208.5,147.7,205,147.7
		 M205,106.1h-16.6v3.6v3.6v34.4v6.9h8.5h8.1c7.4,0,16.3-3.3,17-15.5l0,0v-16.4C221.8,109.4,212.1,106.1,205,106.1"/>
	<polygon class="st2" points="354.9,106.1 354.9,113.4 366.3,113.4 366.3,154.5 374.7,154.5 374.7,113.4 386.1,113.4 386.1,106.1 	
		"/>
	<polygon class="st2" points="466.2,106.1 452.2,135.4 438.2,106.1 430.6,106.1 430.6,154.5 438.2,154.5 438.2,122.1 449.7,146.2 
		454.6,146.2 466.2,122 466.2,154.5 473.7,154.5 473.7,106.1 	"/>
	<path class="st2" d="M402.3,132.8h14.8v-6.4h-14.8v-11.9c0-0.7,0.6-1.3,1.3-1.3h17.9V106h-22.1c-3,0-5.4,2.4-5.4,5.4v37.5
		c0,3,2.5,5.5,5.5,5.5h22.8v-7.2h-18.7c-0.7,0-1.3-0.6-1.3-1.3L402.3,132.8L402.3,132.8z"/>
	<path class="st2" d="M513,140.4c0-9.1-7.1-13-15.8-14.2l0,0c-4.7-0.7-8.2-2.8-8.2-6.3c0-3.4,2.8-6.2,8.1-6.2l0,0h13.1v-7.6h-13.1
		l0,0c-9.8,0-15.7,5.3-15.7,13.8c0,7.6,7.1,12.5,15.8,13.8l0,0c4.5,0.8,8.2,3,8.2,6.6s-2.8,6.6-8.2,6.6h-14.8v7.5h14.8l0,0
		C507.2,154.5,513,149.1,513,140.4"/>
	<path class="st2" d="M165.8,132.8h-11.5v-6.4h11.4c3.3,0,6.1-2.7,6.1-6.1v-2.1c0-2.7-2.2-5-5-5h-15.5V106h17.1
		c6.5,0,11.8,5.3,11.8,11.8v3c0,3.3-1.6,7.8-6,8.6l0,0l0,0c4.4,0.9,6,5.3,6,8.6v4.6c0,6.5-5.3,11.8-11.8,11.8h-17.8v-7.2h16.3
		c2.7,0,5-2.2,5-5v-3.6C171.7,135.5,169,132.8,165.8,132.8z"/>
	<path class="st2" d="M349.9,140.4c0-9.1-7.1-13-15.8-14.2l0,0c-4.7-0.7-8.2-2.8-8.2-6.3c0-3.4,2.8-6.2,8.1-6.2l0,0h13.1v-7.6H334
		l0,0c-9.8,0-15.7,5.3-15.7,13.8c0,7.6,7.1,12.5,15.8,13.8l0,0c4.5,0.8,8.2,3,8.2,6.6s-2.8,6.6-8.2,6.6h-14.8v7.5h14.8l0,0
		C344.1,154.5,349.9,149.1,349.9,140.4"/>
	<path class="st2" d="M274.8,140.4c0-9.1-7.1-13-15.8-14.2l0,0c-4.7-0.7-8.2-2.8-8.2-6.3c0-3.4,2.8-6.2,8.1-6.2l0,0H272v-7.6h-13
		l0,0c-9.8,0-15.7,5.3-15.7,13.8c0,7.6,7.1,12.5,15.8,13.8l0,0c4.5,0.8,8.2,3,8.2,6.6s-2.8,6.6-8.2,6.6h-14.8v7.5h14.8l0,0
		C269.1,154.5,274.8,149.1,274.8,140.4"/>
</g>
<g id="No_trademarks_-_vertical_logo" class="st0">
	<g class="st4">
		<path class="st5" d="M392.9,65.2v1.2h-1.4v5.3h-1.4v-5.3h-1.4v-1.2H392.9z M399.4,65.2v6.5h-1.3v-3.8l0,0l-1.3,2.9h-0.6l-1.3-2.9
			l0,0v3.8h-1.3v-6.5h1.3l1.6,3.7l0,0l1.6-3.7H399.4z"/>
	</g>
	<path class="st1" d="M369.6-32.5l-29.2-22.2c-1.4-1.1-4,0.1-4,1.8l1,67.5c0.1,5.7,3.1,10.9,8.3,13.2l45.4,20.5c4.6,2,9-1.9,8.1-6.8
		L393.5,8C390.7-8.1,382.6-22.4,369.6-32.5z M359.1,11.8l-2.6-34.6c-0.1-1.1,0.7-1.3,1.5-0.6l4.7,3.2c11.6,8.4,15,17.6,17.3,32.9
		l1.7,12.3c0.2,1-1,0.9-1.9,0.4l-18.4-9.8C360.1,14.8,359.2,13.2,359.1,11.8z"/>
	<path class="st2" d="M321.1,70.7l-43.9-11.2c-2.2-0.7-1.3-2.2,0.5-2.9l2.8-1.1c3.8-1.4,8-1.8,11.9-0.7l29.3,8.3
		c2.2,0.6,6.4,1.8,8.2,1.3l3.3-0.9c0.7-0.2,0.3-1-0.9-1.4l-27.8-8.3c-4.8-1.4-8.7-7.1,1.9-11.4l13.7-5.6c6.2-2.4,16.6-2.4,24.2,0.7
		l39.4,16c2.4,1,2.1,2.5,0.5,2.9l-9.3,2.5c-3.6,0.9-7.4,1.1-10.9-0.2l-29-10.1c-2.7-0.9-6-2.1-8.2-1.3l-2.9,1
		c-0.8,0.3-1,1.3-0.1,1.6l21.8,7.2c12,4,10.3,10.2,4.7,11.6l-9.1,2.3C333.4,73,328.1,72.4,321.1,70.7z"/>
	<path class="st3" d="M272.3-4.7L272.3-4.7c-0.3,1.6,1.3,3.3,2.6,2.3l30.8-21.1c1.1-0.7,1.6-0.3,1.5,0.9l-0.5,7.3
		c-0.1,2-1.4,3-3.1,4.1l-24.9,16c-1.5,1-2.8,2.7-3.2,4.5l-1.5,9.6c-0.1,1,1.1,1.7,2,1.2l27.6-15.9c0.6-0.3,1.5,0.3,1.5,1l-0.5,7.2
		c-0.1,1.4-1,2.5-2.2,3.2l-35,18.6c-1.9,1-2.1,2.1-2.4,3.8l-0.6,3c-0.9,5.2,3.5,9.6,8.1,7.5L318,28c5.2-2.4,8.3-8.1,8.4-13.8l1-66.5
		c0-1.8-2.7-3.4-4.1-2.3l-39.6,30C277.3-19.7,273.7-12.5,272.3-4.7z"/>
	<path class="st1" d="M331.6,20.3L331.6,20.3L331.6,20.3z"/>
	<path class="st3" d="M520.5,109.9c0,1.4-0.9,2.7-2.7,2.7s-2.7-1.3-2.7-2.7v-1.2c0-1.4,0.9-2.6,2.7-2.6s2.7,1.2,2.7,2.6V109.9z
		 M515.7,109.9c0,1.3,0.6,2,2,2s2-0.8,2-2v-1.2c0-1.2-0.6-2-2-2s-2,0.7-2,2V109.9z M517.7,109.7h-0.4v1.4h-0.9v-3.7h1.4
		c1,0,1.4,0.4,1.4,1.1c0,0.5-0.2,0.8-0.7,1l0.8,1.6h-1L517.7,109.7z M517.3,109.1h0.5c0.4,0,0.5-0.2,0.5-0.5s-0.1-0.5-0.5-0.5h-0.5
		V109.1z"/>
	<polygon class="st2" points="315.7,106.1 307.3,106.1 296.8,125.6 286.3,106.1 277.9,106.1 292.6,134.9 292.6,154.5 301,154.5 
		301,135 301,135 301,134.9 	"/>
	<path class="st2" d="M205,147.7L205,147.7h-8.1v-34.4h8.1c3.4,0,8.4,1.1,8.6,9.3v15.8C213.4,146.6,208.5,147.7,205,147.7
		 M205,106.1h-16.6v3.6v3.6v34.4v6.9h8.5h8.1c7.4,0,16.3-3.3,17-15.5l0,0v-16.4C221.8,109.4,212.1,106.1,205,106.1"/>
	<polygon class="st2" points="354.9,106.1 354.9,113.4 366.3,113.4 366.3,154.5 374.7,154.5 374.7,113.4 386.1,113.4 386.1,106.1 	
		"/>
	<polygon class="st2" points="466.2,106.1 452.2,135.4 438.2,106.1 430.6,106.1 430.6,154.5 438.2,154.5 438.2,122.1 449.7,146.2 
		454.6,146.2 466.2,122 466.2,154.5 473.7,154.5 473.7,106.1 	"/>
	<path class="st2" d="M402.3,132.8h14.8v-6.4h-14.8v-11.9c0-0.7,0.6-1.3,1.3-1.3h17.9V106h-22.1c-3,0-5.4,2.4-5.4,5.4v37.5
		c0,3,2.5,5.5,5.5,5.5h22.8v-7.2h-18.7c-0.7,0-1.3-0.6-1.3-1.3L402.3,132.8L402.3,132.8z"/>
	<path class="st2" d="M513,140.4c0-9.1-7.1-13-15.8-14.2l0,0c-4.7-0.7-8.2-2.8-8.2-6.3c0-3.4,2.8-6.2,8.1-6.2l0,0h13.1v-7.6h-13.1
		l0,0c-9.8,0-15.7,5.3-15.7,13.8c0,7.6,7.1,12.5,15.8,13.8l0,0c4.5,0.8,8.2,3,8.2,6.6s-2.8,6.6-8.2,6.6h-14.8v7.5h14.8l0,0
		C507.2,154.5,513,149.1,513,140.4"/>
	<path class="st2" d="M165.8,132.8h-11.5v-6.4h11.4c3.3,0,6.1-2.7,6.1-6.1v-2.1c0-2.7-2.2-5-5-5h-15.5V106h17.1
		c6.5,0,11.8,5.3,11.8,11.8v3c0,3.3-1.6,7.8-6,8.6l0,0l0,0c4.4,0.9,6,5.3,6,8.6v4.6c0,6.5-5.3,11.8-11.8,11.8h-17.8v-7.2h16.3
		c2.7,0,5-2.2,5-5v-3.6C171.7,135.5,169,132.8,165.8,132.8z"/>
	<path class="st2" d="M349.9,140.4c0-9.1-7.1-13-15.8-14.2l0,0c-4.7-0.7-8.2-2.8-8.2-6.3c0-3.4,2.8-6.2,8.1-6.2l0,0h13.1v-7.6H334
		l0,0c-9.8,0-15.7,5.3-15.7,13.8c0,7.6,7.1,12.5,15.8,13.8l0,0c4.5,0.8,8.2,3,8.2,6.6s-2.8,6.6-8.2,6.6h-14.8v7.5h14.8l0,0
		C344.1,154.5,349.9,149.1,349.9,140.4"/>
	<path class="st2" d="M274.8,140.4c0-9.1-7.1-13-15.8-14.2l0,0c-4.7-0.7-8.2-2.8-8.2-6.3c0-3.4,2.8-6.2,8.1-6.2l0,0H272v-7.6h-13
		l0,0c-9.8,0-15.7,5.3-15.7,13.8c0,7.6,7.1,12.5,15.8,13.8l0,0c4.5,0.8,8.2,3,8.2,6.6s-2.8,6.6-8.2,6.6h-14.8v7.5h14.8l0,0
		C269.1,154.5,274.8,149.1,274.8,140.4"/>
</g>
<g id="Trademarks_-_3_color_logo_-_dark_bkgrd" class="st0">
	<rect x="-17.5" y="-12.2" class="st2" width="685.1" height="129.9"/>
	<g class="st4">
		<path class="st5" d="M101.1,94.2v0.9H100v4.1h-1.1v-4.1h-1.1v-0.9H101.1z M106.2,94.2v5.1h-1v-3l0,0l-1,2.3h-0.5l-1-2.3l0,0v3h-1
			v-5.1h1l1.2,2.9l0,0l1.3-2.9H106.2z"/>
	</g>
	<polygon class="st6" points="363.6,19.2 352.1,19.2 337.7,45.8 323.3,19.2 311.8,19.2 331.9,58.5 331.9,85.4 343.4,85.4 
		343.4,58.7 343.5,58.7 343.5,58.6 	"/>
	<path class="st6" d="M212.1,76L212.1,76H201V28.9h11.1c4.7,0,11.5,1.5,11.8,12.7v21.6C223.6,74.5,216.8,76,212.1,76 M212.1,19.2
		h-22.7v4.9V29v47.1v9.4H201h11.1c10.1,0,22.3-4.5,23.3-21.3l0,0V41.7C235,23.7,221.8,19.2,212.1,19.2"/>
	<polygon class="st6" points="417.3,19.2 417.3,29.1 432.8,29.1 432.8,85.4 444.3,85.4 444.3,29.1 459.9,29.1 459.9,19.2 	"/>
	<polygon class="st6" points="569.4,19.2 550.3,59.3 531.1,19.2 520.7,19.2 520.7,85.4 531.1,85.4 531.1,41 546.9,74.1 553.6,74.1 
		569.4,40.9 569.4,85.4 579.8,85.4 579.8,19.2 	"/>
	<path class="st7" d="M74.6,52.5l-2.1-27.2c-0.1-0.8,0.5-1,1.2-0.5l3.7,2.5c9.1,6.6,11.8,13.8,13.6,25.8l1.3,9.7
		c0.1,0.8-0.8,0.7-1.5,0.3l-14.5-7.7C75.3,54.9,74.6,53.6,74.6,52.5 M82.8,17.7L59.9,0.3c-1.1-0.8-3.2,0.1-3.2,1.4l0.8,53.1
		c0.1,4.5,2.5,8.5,6.5,10.4l35.7,16.1c3.6,1.6,7-1.5,6.4-5.4l-4.5-26.3C99.4,36.8,93,25.6,82.8,17.7"/>
	<path class="st3" d="M44.7,98.8L10.2,90c-1.7-0.5-1.1-1.7,0.4-2.3l2.2-0.9c3-1.1,6.3-1.4,9.4-0.5l23,6.5c1.7,0.5,5,1.4,6.4,1
		l2.6-0.7c0.6-0.2,0.3-0.8-0.7-1.1l-21.8-6.5c-3.8-1.1-6.8-5.6,1.5-9L44,72.1c4.9-1.9,13.1-1.9,19,0.6l31,12.6
		c1.9,0.8,1.7,2,0.4,2.3l-7.3,1.9c-2.8,0.7-5.8,0.8-8.6-0.1l-22.8-8c-2.1-0.7-4.7-1.7-6.4-1L47,81.2c-0.7,0.2-0.8,1-0.1,1.2L64,88.1
		c9.4,3.1,8.1,8,3.7,9.2l-7.2,1.8C54.4,100.6,50.2,100.1,44.7,98.8"/>
	<path class="st6" d="M6.3,39.5L6.3,39.5c-0.2,1.2,1,2.6,2,1.8l24.2-16.6c0.8-0.6,1.2-0.3,1.2,0.7l-0.4,5.8
		c-0.1,1.5-1.1,2.4-2.4,3.2L11.4,46.9c-1.2,0.8-2.2,2.1-2.5,3.6L7.7,58c-0.1,0.8,0.9,1.3,1.6,1L31,46.5c0.5-0.3,1.2,0.3,1.2,0.8
		l-0.4,5.6c-0.1,1.1-0.8,2-1.8,2.5L2.5,70c-1.5,0.8-1.6,1.6-1.9,3l-0.5,2.4c-0.7,4.1,2.7,7.5,6.4,5.9l35.7-16.1
		c4.1-1.9,6.5-6.3,6.6-10.8l0.8-52.2c0-1.4-2.1-2.7-3.2-1.8L15.3,24C10.3,27.7,7.4,33.4,6.3,39.5"/>
	<path class="st6" d="M482.1,55.7h20.3V47h-20.3V30.7c0-1,0.8-1.7,1.7-1.7h24.5v-9.8H478c-4.1,0-7.4,3.3-7.4,7.4v51.3
		c0,4.2,3.4,7.5,7.5,7.5h31.2v-9.8h-25.6c-0.9,0-1.7-0.8-1.7-1.7L482.1,55.7L482.1,55.7z"/>
	<path class="st6" d="M633.5,66c0-12.5-9.8-17.7-21.6-19.4l0,0c-6.4-1-11.3-3.8-11.3-8.6c0-4.7,3.8-8.5,11.1-8.5l0,0h17.9V19.1
		h-17.9l0,0c-13.5,0-21.5,7.3-21.5,18.9c0,10.4,9.7,17.1,21.6,18.9l0,0c6.1,1.1,11.3,4.1,11.3,9.1s-3.9,9-11.2,9.1h-20.2v10.3H612
		l0,0C625.6,85.4,633.5,78,633.5,66"/>
	<path class="st6" d="M158.4,55.7h-15.7V47h15.6c4.6,0,8.3-3.7,8.3-8.3v-2.9c0-3.8-3-6.8-6.8-6.8h-21.2v-9.8H162
		c8.9,0,16.1,7.2,16.1,16.1v4.1c0,4.5-2.2,10.6-8.2,11.8l0,0l0,0c6,1.3,8.2,7.3,8.2,11.8v6.2c0,8.9-7.3,16.2-16.2,16.2h-24.4v-9.8
		h22.3c3.8,0,6.8-3,6.8-6.8v-4.9C166.6,59.4,162.9,55.7,158.4,55.7z"/>
	<path class="st6" d="M410.4,66c0-12.5-9.8-17.7-21.6-19.4l0,0c-6.4-1-11.3-3.8-11.3-8.6c0-4.7,3.8-8.5,11.1-8.5l0,0h17.9V19.1
		h-17.9l0,0c-13.5,0-21.5,7.3-21.5,18.9c0,10.4,9.7,17.1,21.6,18.9l0,0C394.8,58,400,61,400,66s-3.9,9-11.2,9.1h-20.2v10.3h20.2l0,0
		C402.5,85.4,410.4,78,410.4,66"/>
	<path class="st6" d="M307.7,66c0-12.5-9.8-17.7-21.6-19.4l0,0c-6.4-1-11.3-3.8-11.3-8.6c0-4.7,3.8-8.5,11.1-8.5l0,0h17.9V19.1
		h-17.9l0,0c-13.5,0-21.5,7.3-21.5,18.9c0,10.4,9.7,17.1,21.6,18.9l0,0c6.1,1.1,11.3,4.1,11.3,9.1s-3.9,9-11.2,9.1h-20.2v10.3h20.2
		l0,0C299.8,85.4,307.7,78,307.7,66"/>
	<path class="st3" d="M643.1,24.4c0,2-1.2,3.7-3.7,3.7s-3.7-1.7-3.7-3.7v-1.6c0-2,1.2-3.6,3.7-3.6s3.7,1.7,3.7,3.6V24.4z
		 M636.6,24.4c0,1.7,0.9,2.8,2.8,2.8c1.9,0,2.8-1,2.8-2.8v-1.7c0-1.7-0.9-2.7-2.8-2.7c-1.9,0-2.8,1-2.8,2.7V24.4z M639.3,24.1h-0.5
		V26h-1.2v-5.1h1.9c1.3,0,1.9,0.6,1.9,1.5c0,0.6-0.3,1.2-0.9,1.4l1.1,2.2h-1.3L639.3,24.1z M638.8,23.3h0.7c0.6,0,0.6-0.3,0.6-0.7
		S640,22,639.5,22h-0.7V23.3z"/>
</g>
<g id="Trademarks_-_3_color_logo_-_light_bkgrd" class="st0">
	<g class="st4">
		<path class="st5" d="M101.1,94.2v0.9H100v4.1h-1.1v-4.1h-1.1v-0.9H101.1z M106.2,94.2v5.1h-1v-3l0,0l-1,2.3h-0.5l-1-2.3l0,0v3h-1
			v-5.1h1l1.2,2.9l0,0l1.3-2.9H106.2z"/>
	</g>
	<path class="st3" d="M643.1,24.4c0,2-1.2,3.7-3.7,3.7s-3.7-1.7-3.7-3.7v-1.6c0-2,1.2-3.6,3.7-3.6s3.7,1.7,3.7,3.6V24.4z
		 M636.6,24.4c0,1.7,0.9,2.8,2.8,2.8c1.9,0,2.8-1,2.8-2.8v-1.7c0-1.7-0.9-2.7-2.8-2.7c-1.9,0-2.8,1-2.8,2.7V24.4z M639.3,24.1h-0.5
		V26h-1.2v-5.1h1.9c1.3,0,1.9,0.6,1.9,1.5c0,0.6-0.3,1.2-0.9,1.4l1.1,2.2h-1.3L639.3,24.1z M638.8,23.3h0.7c0.6,0,0.6-0.3,0.6-0.7
		S640,22,639.5,22h-0.7V23.3z"/>
	<polygon class="st2" points="363.6,19.2 352.1,19.2 337.7,45.8 323.3,19.2 311.8,19.2 331.9,58.5 331.9,85.4 343.4,85.4 
		343.4,58.7 343.5,58.7 343.5,58.6 	"/>
	<path class="st2" d="M212.1,76L212.1,76H201V28.9h11.1c4.7,0,11.5,1.5,11.8,12.7v21.6C223.6,74.5,216.8,76,212.1,76 M212.1,19.2
		h-22.7v4.9V29v47.1v9.4H201h11.1c10.1,0,22.3-4.5,23.3-21.3l0,0V41.7C235,23.7,221.8,19.2,212.1,19.2"/>
	<polygon class="st2" points="417.3,19.2 417.3,29.1 432.8,29.1 432.8,85.4 444.3,85.4 444.3,29.1 459.9,29.1 459.9,19.2 	"/>
	<polygon class="st2" points="569.4,19.2 550.3,59.3 531.1,19.2 520.7,19.2 520.7,85.4 531.1,85.4 531.1,41 546.9,74.1 553.6,74.1 
		569.4,40.9 569.4,85.4 579.8,85.4 579.8,19.2 	"/>
	<path class="st1" d="M74.6,52.5l-2.1-27.2c-0.1-0.8,0.5-1,1.2-0.5l3.7,2.5c9.1,6.6,11.8,13.8,13.6,25.8l1.3,9.7
		c0.1,0.8-0.8,0.7-1.5,0.3l-14.5-7.7C75.3,54.9,74.6,53.6,74.6,52.5 M82.8,17.7L59.9,0.3c-1.1-0.8-3.2,0.1-3.2,1.4l0.8,53.1
		c0.1,4.5,2.5,8.5,6.5,10.4l35.7,16.1c3.6,1.6,7-1.5,6.4-5.4l-4.5-26.3C99.4,36.8,93,25.6,82.8,17.7"/>
	<path class="st2" d="M44.7,98.8L10.2,90c-1.7-0.5-1.1-1.7,0.4-2.3l2.2-0.9c3-1.1,6.3-1.4,9.4-0.5l23,6.5c1.7,0.5,5,1.4,6.4,1
		l2.6-0.7c0.6-0.2,0.3-0.8-0.7-1.1l-21.8-6.5c-3.8-1.1-6.8-5.6,1.5-9L44,72.1c4.9-1.9,13.1-1.9,19,0.6l31,12.6
		c1.9,0.8,1.7,2,0.4,2.3l-7.3,1.9c-2.8,0.7-5.8,0.8-8.6-0.1l-22.8-8c-2.1-0.7-4.7-1.7-6.4-1L47,81.2c-0.7,0.2-0.8,1-0.1,1.2L64,88.1
		c9.4,3.1,8.1,8,3.7,9.2l-7.2,1.8C54.4,100.6,50.2,100.1,44.7,98.8"/>
	<path class="st3" d="M6.3,39.5L6.3,39.5c-0.2,1.2,1,2.6,2,1.8l24.2-16.6c0.8-0.6,1.2-0.3,1.2,0.7l-0.4,5.8
		c-0.1,1.5-1.1,2.4-2.4,3.2L11.4,46.9c-1.2,0.8-2.2,2.1-2.5,3.6L7.7,58c-0.1,0.8,0.9,1.3,1.6,1L31,46.5c0.5-0.3,1.2,0.3,1.2,0.8
		l-0.4,5.6c-0.1,1.1-0.8,2-1.8,2.5L2.5,70c-1.5,0.8-1.6,1.6-1.9,3l-0.5,2.4c-0.7,4.1,2.7,7.5,6.4,5.9l35.7-16.1
		c4.1-1.9,6.5-6.3,6.6-10.8l0.8-52.2c0-1.4-2.1-2.7-3.2-1.8L15.3,24C10.3,27.7,7.4,33.4,6.3,39.5"/>
	<path class="st2" d="M482.1,55.7h20.3V47h-20.3V30.7c0-1,0.8-1.7,1.7-1.7h24.5v-9.8H478c-4.1,0-7.4,3.3-7.4,7.4v51.3
		c0,4.2,3.4,7.5,7.5,7.5h31.2v-9.8h-25.6c-0.9,0-1.7-0.8-1.7-1.7L482.1,55.7L482.1,55.7z"/>
	<path class="st2" d="M633.5,66c0-12.5-9.8-17.7-21.6-19.4l0,0c-6.4-1-11.3-3.8-11.3-8.6c0-4.7,3.8-8.5,11.1-8.5l0,0h17.9V19.1
		h-17.9l0,0c-13.5,0-21.5,7.3-21.5,18.9c0,10.4,9.7,17.1,21.6,18.9l0,0c6.1,1.1,11.3,4.1,11.3,9.1s-3.9,9-11.2,9.1h-20.2v10.3H612
		l0,0C625.6,85.4,633.5,78,633.5,66"/>
	<path class="st2" d="M158.4,55.7h-15.7V47h15.6c4.6,0,8.3-3.7,8.3-8.3v-2.9c0-3.8-3-6.8-6.8-6.8h-21.2v-9.8H162
		c8.9,0,16.1,7.2,16.1,16.1v4.1c0,4.5-2.2,10.6-8.2,11.8l0,0l0,0c6,1.3,8.2,7.3,8.2,11.8v6.2c0,8.9-7.3,16.2-16.2,16.2h-24.4v-9.8
		h22.3c3.8,0,6.8-3,6.8-6.8v-4.9C166.6,59.4,162.9,55.7,158.4,55.7z"/>
	<path class="st2" d="M410.4,66c0-12.5-9.8-17.7-21.6-19.4l0,0c-6.4-1-11.3-3.8-11.3-8.6c0-4.7,3.8-8.5,11.1-8.5l0,0h17.9V19.1
		h-17.9l0,0c-13.5,0-21.5,7.3-21.5,18.9c0,10.4,9.7,17.1,21.6,18.9l0,0C394.8,58,400,61,400,66s-3.9,9-11.2,9.1h-20.2v10.3h20.2l0,0
		C402.5,85.4,410.4,78,410.4,66"/>
	<path class="st2" d="M307.7,66c0-12.5-9.8-17.7-21.6-19.4l0,0c-6.4-1-11.3-3.8-11.3-8.6c0-4.7,3.8-8.5,11.1-8.5l0,0h17.9V19.1
		h-17.9l0,0c-13.5,0-21.5,7.3-21.5,18.9c0,10.4,9.7,17.1,21.6,18.9l0,0c6.1,1.1,11.3,4.1,11.3,9.1s-3.9,9-11.2,9.1h-20.2v10.3h20.2
		l0,0C299.8,85.4,307.7,78,307.7,66"/>
</g>
<g id="_x31__color_logo_-_white" class="st0">
	<rect x="-17.7" y="-11.6" class="st2" width="685.1" height="129.9"/>
	<polygon class="st8" points="363.6,19.2 352.1,19.2 337.7,45.8 323.3,19.2 311.8,19.2 331.9,58.5 331.9,85.4 343.4,85.4 
		343.4,58.7 343.5,58.7 343.5,58.6 	"/>
	<path class="st8" d="M212.1,76L212.1,76H201V28.9h11.1c4.7,0,11.5,1.5,11.8,12.7v21.6C223.6,74.5,216.8,76,212.1,76 M212.1,19.2
		h-22.7v4.9V29v47.1v9.4H201h11.1c10.1,0,22.3-4.5,23.3-21.3l0,0V41.7C235,23.7,221.8,19.2,212.1,19.2"/>
	<polygon class="st8" points="417.3,19.2 417.3,29.1 432.8,29.1 432.8,85.4 444.3,85.4 444.3,29.1 459.9,29.1 459.9,19.2 	"/>
	<polygon class="st8" points="569.4,19.2 550.3,59.3 531.1,19.2 520.7,19.2 520.7,85.4 531.1,85.4 531.1,41 546.9,74.1 553.6,74.1 
		569.4,40.9 569.4,85.4 579.8,85.4 579.8,19.2 	"/>
	<path class="st8" d="M74.6,52.5l-2.1-27.2c-0.1-0.8,0.5-1,1.2-0.5l3.7,2.5c9.1,6.6,11.8,13.8,13.6,25.8l1.3,9.7
		c0.1,0.8-0.8,0.7-1.5,0.3l-14.5-7.7C75.3,54.9,74.6,53.6,74.6,52.5 M82.8,17.7L59.9,0.3c-1.1-0.8-3.2,0.1-3.2,1.4l0.8,53.1
		c0.1,4.5,2.5,8.5,6.5,10.4l35.7,16.1c3.6,1.6,7-1.5,6.4-5.4l-4.5-26.3C99.4,36.8,93,25.6,82.8,17.7"/>
	<path class="st8" d="M44.7,98.8L10.2,90c-1.7-0.5-1.1-1.7,0.4-2.3l2.2-0.9c3-1.1,6.3-1.4,9.4-0.5l23,6.5c1.7,0.5,5,1.4,6.4,1
		l2.6-0.7c0.6-0.2,0.3-0.8-0.7-1.1l-21.8-6.5c-3.8-1.1-6.8-5.6,1.5-9L44,72.1c4.9-1.9,13.1-1.9,19,0.6l31,12.6
		c1.9,0.8,1.7,2,0.4,2.3l-7.3,1.9c-2.8,0.7-5.8,0.8-8.6-0.1l-22.8-8c-2.1-0.7-4.7-1.7-6.4-1L47,81.2c-0.7,0.2-0.8,1-0.1,1.2L64,88.1
		c9.4,3.1,8.1,8,3.7,9.2l-7.2,1.8C54.4,100.6,50.2,100.1,44.7,98.8"/>
	<path class="st8" d="M6.3,39.5L6.3,39.5c-0.2,1.2,1,2.6,2,1.8l24.2-16.6c0.8-0.6,1.2-0.3,1.2,0.7l-0.4,5.8
		c-0.1,1.5-1.1,2.4-2.4,3.2L11.4,46.9c-1.2,0.8-2.2,2.1-2.5,3.6L7.7,58c-0.1,0.8,0.9,1.3,1.6,1L31,46.5c0.5-0.3,1.2,0.3,1.2,0.8
		l-0.4,5.6c-0.1,1.1-0.8,2-1.8,2.5L2.5,70c-1.5,0.8-1.6,1.6-1.9,3l-0.5,2.4c-0.7,4.1,2.7,7.5,6.4,5.9l35.7-16.1
		c4.1-1.9,6.5-6.3,6.6-10.8l0.8-52.2c0-1.4-2.1-2.7-3.2-1.8L15.3,24C10.3,27.7,7.4,33.4,6.3,39.5"/>
	<path class="st8" d="M482.1,55.7h20.3V47h-20.3V30.7c0-1,0.8-1.7,1.7-1.7h24.5v-9.8H478c-4.1,0-7.4,3.3-7.4,7.4v51.3
		c0,4.2,3.4,7.5,7.5,7.5h31.2v-9.8h-25.6c-0.9,0-1.7-0.8-1.7-1.7L482.1,55.7L482.1,55.7z"/>
	<path class="st8" d="M633.5,66c0-12.5-9.8-17.7-21.6-19.4l0,0c-6.4-1-11.3-3.8-11.3-8.6c0-4.7,3.8-8.5,11.1-8.5l0,0h17.9V19.1
		h-17.9l0,0c-13.5,0-21.5,7.3-21.5,18.9c0,10.4,9.7,17.1,21.6,18.9l0,0c6.1,1.1,11.3,4.1,11.3,9.1s-3.9,9-11.2,9.1h-20.2v10.3H612
		l0,0C625.6,85.4,633.5,78,633.5,66"/>
	<path class="st8" d="M158.4,55.7h-15.7V47h15.6c4.6,0,8.3-3.7,8.3-8.3v-2.9c0-3.8-3-6.8-6.8-6.8h-21.2v-9.8H162
		c8.9,0,16.1,7.2,16.1,16.1v4.1c0,4.5-2.2,10.6-8.2,11.8l0,0l0,0c6,1.3,8.2,7.3,8.2,11.8v6.2c0,8.9-7.3,16.2-16.2,16.2h-24.4v-9.8
		h22.3c3.8,0,6.8-3,6.8-6.8v-4.9C166.6,59.4,162.9,55.7,158.4,55.7z"/>
	<path class="st8" d="M410.4,66c0-12.5-9.8-17.7-21.6-19.4l0,0c-6.4-1-11.3-3.8-11.3-8.6c0-4.7,3.8-8.5,11.1-8.5l0,0h17.9V19.1
		h-17.9l0,0c-13.5,0-21.5,7.3-21.5,18.9c0,10.4,9.7,17.1,21.6,18.9l0,0C394.8,58,400,61,400,66s-3.9,9-11.2,9.1h-20.2v10.3h20.2l0,0
		C402.5,85.4,410.4,78,410.4,66"/>
	<path class="st8" d="M307.7,66c0-12.5-9.8-17.7-21.6-19.4l0,0c-6.4-1-11.3-3.8-11.3-8.6c0-4.7,3.8-8.5,11.1-8.5l0,0h17.9V19.1
		h-17.9l0,0c-13.5,0-21.5,7.3-21.5,18.9c0,10.4,9.7,17.1,21.6,18.9l0,0c6.1,1.1,11.3,4.1,11.3,9.1s-3.9,9-11.2,9.1h-20.2v10.3h20.2
		l0,0C299.8,85.4,307.7,78,307.7,66"/>
</g>
<g id="_x31__color_logo_-_black" class="st0">
	<polygon class="st4" points="363.6,19.2 352.1,19.2 337.7,45.8 323.3,19.2 311.8,19.2 331.9,58.5 331.9,85.4 343.4,85.4 
		343.4,58.7 343.5,58.7 343.5,58.6 	"/>
	<path class="st4" d="M212.1,76L212.1,76H201V28.9h11.1c4.7,0,11.5,1.5,11.8,12.7v21.6C223.6,74.5,216.8,76,212.1,76 M212.1,19.2
		h-22.7v4.9V29v47.1v9.4H201h11.1c10.1,0,22.3-4.5,23.3-21.3l0,0V41.7C235,23.7,221.8,19.2,212.1,19.2"/>
	<polygon class="st4" points="417.3,19.2 417.3,29.1 432.8,29.1 432.8,85.4 444.3,85.4 444.3,29.1 459.9,29.1 459.9,19.2 	"/>
	<polygon class="st4" points="569.4,19.2 550.3,59.3 531.1,19.2 520.7,19.2 520.7,85.4 531.1,85.4 531.1,41 546.9,74.1 553.6,74.1 
		569.4,40.9 569.4,85.4 579.8,85.4 579.8,19.2 	"/>
	<path class="st4" d="M74.6,52.5l-2.1-27.2c-0.1-0.8,0.5-1,1.2-0.5l3.7,2.5c9.1,6.6,11.8,13.8,13.6,25.8l1.3,9.7
		c0.1,0.8-0.8,0.7-1.5,0.3l-14.5-7.7C75.3,54.9,74.6,53.6,74.6,52.5 M82.8,17.7L59.9,0.3c-1.1-0.8-3.2,0.1-3.2,1.4l0.8,53.1
		c0.1,4.5,2.5,8.5,6.5,10.4l35.7,16.1c3.6,1.6,7-1.5,6.4-5.4l-4.5-26.3C99.4,36.8,93,25.6,82.8,17.7"/>
	<path class="st4" d="M44.7,98.8L10.2,90c-1.7-0.5-1.1-1.7,0.4-2.3l2.2-0.9c3-1.1,6.3-1.4,9.4-0.5l23,6.5c1.7,0.5,5,1.4,6.4,1
		l2.6-0.7c0.6-0.2,0.3-0.8-0.7-1.1l-21.8-6.5c-3.8-1.1-6.8-5.6,1.5-9L44,72.1c4.9-1.9,13.1-1.9,19,0.6l31,12.6
		c1.9,0.8,1.7,2,0.4,2.3l-7.3,1.9c-2.8,0.7-5.8,0.8-8.6-0.1l-22.8-8c-2.1-0.7-4.7-1.7-6.4-1L47,81.2c-0.7,0.2-0.8,1-0.1,1.2L64,88.1
		c9.4,3.1,8.1,8,3.7,9.2l-7.2,1.8C54.4,100.6,50.2,100.1,44.7,98.8"/>
	<path class="st4" d="M6.3,39.5L6.3,39.5c-0.2,1.2,1,2.6,2,1.8l24.2-16.6c0.8-0.6,1.2-0.3,1.2,0.7l-0.4,5.8
		c-0.1,1.5-1.1,2.4-2.4,3.2L11.4,46.9c-1.2,0.8-2.2,2.1-2.5,3.6L7.7,58c-0.1,0.8,0.9,1.3,1.6,1L31,46.5c0.5-0.3,1.2,0.3,1.2,0.8
		l-0.4,5.6c-0.1,1.1-0.8,2-1.8,2.5L2.5,70c-1.5,0.8-1.6,1.6-1.9,3l-0.5,2.4c-0.7,4.1,2.7,7.5,6.4,5.9l35.7-16.1
		c4.1-1.9,6.5-6.3,6.6-10.8l0.8-52.2c0-1.4-2.1-2.7-3.2-1.8L15.3,24C10.3,27.7,7.4,33.4,6.3,39.5"/>
	<path class="st4" d="M482.1,55.7h20.3V47h-20.3V30.7c0-1,0.8-1.7,1.7-1.7h24.5v-9.8H478c-4.1,0-7.4,3.3-7.4,7.4v51.3
		c0,4.2,3.4,7.5,7.5,7.5h31.2v-9.8h-25.6c-0.9,0-1.7-0.8-1.7-1.7L482.1,55.7L482.1,55.7z"/>
	<path class="st4" d="M633.5,66c0-12.5-9.8-17.7-21.6-19.4l0,0c-6.4-1-11.3-3.8-11.3-8.6c0-4.7,3.8-8.5,11.1-8.5l0,0h17.9V19.1
		h-17.9l0,0c-13.5,0-21.5,7.3-21.5,18.9c0,10.4,9.7,17.1,21.6,18.9l0,0c6.1,1.1,11.3,4.1,11.3,9.1s-3.9,9-11.2,9.1h-20.2v10.3H612
		l0,0C625.6,85.4,633.5,78,633.5,66"/>
	<path class="st4" d="M158.4,55.7h-15.7V47h15.6c4.6,0,8.3-3.7,8.3-8.3v-2.9c0-3.8-3-6.8-6.8-6.8h-21.2v-9.8H162
		c8.9,0,16.1,7.2,16.1,16.1v4.1c0,4.5-2.2,10.6-8.2,11.8l0,0l0,0c6,1.3,8.2,7.3,8.2,11.8v6.2c0,8.9-7.3,16.2-16.2,16.2h-24.4v-9.8
		h22.3c3.8,0,6.8-3,6.8-6.8v-4.9C166.6,59.4,162.9,55.7,158.4,55.7z"/>
	<path class="st4" d="M410.4,66c0-12.5-9.8-17.7-21.6-19.4l0,0c-6.4-1-11.3-3.8-11.3-8.6c0-4.7,3.8-8.5,11.1-8.5l0,0h17.9V19.1
		h-17.9l0,0c-13.5,0-21.5,7.3-21.5,18.9c0,10.4,9.7,17.1,21.6,18.9l0,0C394.8,58,400,61,400,66s-3.9,9-11.2,9.1h-20.2v10.3h20.2l0,0
		C402.5,85.4,410.4,78,410.4,66"/>
	<path class="st4" d="M307.7,66c0-12.5-9.8-17.7-21.6-19.4l0,0c-6.4-1-11.3-3.8-11.3-8.6c0-4.7,3.8-8.5,11.1-8.5l0,0h17.9V19.1
		h-17.9l0,0c-13.5,0-21.5,7.3-21.5,18.9c0,10.4,9.7,17.1,21.6,18.9l0,0c6.1,1.1,11.3,4.1,11.3,9.1s-3.9,9-11.2,9.1h-20.2v10.3h20.2
		l0,0C299.8,85.4,307.7,78,307.7,66"/>
</g>
<g id="No_trademarks_-_3_color_logo_-_dark_bkgrd_copy">
	<polygon class="st9" points="363.6,19.2 352.1,19.2 337.7,45.8 323.3,19.2 311.8,19.2 331.9,58.5 331.9,85.4 343.4,85.4 
		343.4,58.7 343.5,58.7 343.5,58.6 	"/>
	<path class="st9" d="M212.1,76L212.1,76H201V28.9h11.1c4.7,0,11.5,1.5,11.8,12.7v21.6C223.6,74.5,216.8,76,212.1,76 M212.1,19.2
		h-22.7v4.9V29v47.1v9.4H201h11.1c10.1,0,22.3-4.5,23.3-21.3l0,0V41.7C235,23.7,221.8,19.2,212.1,19.2"/>
	<polygon class="st9" points="417.3,19.2 417.3,29.1 432.8,29.1 432.8,85.4 444.3,85.4 444.3,29.1 459.9,29.1 459.9,19.2 	"/>
	<polygon class="st9" points="569.4,19.2 550.3,59.3 531.1,19.2 520.7,19.2 520.7,85.4 531.1,85.4 531.1,41 546.9,74.1 553.6,74.1 
		569.4,40.9 569.4,85.4 579.8,85.4 579.8,19.2 	"/>
	<path class="st10" d="M74.6,52.5l-2.1-27.2c-0.1-0.8,0.5-1,1.2-0.5l3.7,2.5c9.1,6.6,11.8,13.8,13.6,25.8l1.3,9.7
		c0.1,0.8-0.8,0.7-1.5,0.3l-14.5-7.7C75.3,54.9,74.6,53.6,74.6,52.5 M82.8,17.7L59.9,0.3c-1.1-0.8-3.2,0.1-3.2,1.4l0.8,53.1
		c0.1,4.5,2.5,8.5,6.5,10.4l35.7,16.1c3.6,1.6,7-1.5,6.4-5.4l-4.5-26.3C99.4,36.8,93,25.6,82.8,17.7"/>
	<path class="st5" d="M44.7,98.8L10.2,90c-1.7-0.5-1.1-1.7,0.4-2.3l2.2-0.9c3-1.1,6.3-1.4,9.4-0.5l23,6.5c1.7,0.5,5,1.4,6.4,1
		l2.6-0.7c0.6-0.2,0.3-0.8-0.7-1.1l-21.8-6.5c-3.8-1.1-6.8-5.6,1.5-9L44,72.1c4.9-1.9,13.1-1.9,19,0.6l31,12.6
		c1.9,0.8,1.7,2,0.4,2.3l-7.3,1.9c-2.8,0.7-5.8,0.8-8.6-0.1l-22.8-8c-2.1-0.7-4.7-1.7-6.4-1L47,81.2c-0.7,0.2-0.8,1-0.1,1.2L64,88.1
		c9.4,3.1,8.1,8,3.7,9.2l-7.2,1.8C54.4,100.6,50.2,100.1,44.7,98.8"/>
	<path class="st9" d="M6.3,39.5L6.3,39.5c-0.2,1.2,1,2.6,2,1.8l24.2-16.6c0.8-0.6,1.2-0.3,1.2,0.7l-0.4,5.8
		c-0.1,1.5-1.1,2.4-2.4,3.2L11.4,46.9c-1.2,0.8-2.2,2.1-2.5,3.6L7.7,58c-0.1,0.8,0.9,1.3,1.6,1L31,46.5c0.5-0.3,1.2,0.3,1.2,0.8
		l-0.4,5.6c-0.1,1.1-0.8,2-1.8,2.5L2.5,70c-1.5,0.8-1.6,1.6-1.9,3l-0.5,2.4c-0.7,4.1,2.7,7.5,6.4,5.9l35.7-16.1
		c4.1-1.9,6.5-6.3,6.6-10.8l0.8-52.2c0-1.4-2.1-2.7-3.2-1.8L15.3,24C10.3,27.7,7.4,33.4,6.3,39.5"/>
	<path class="st9" d="M482.1,55.7h20.3V47h-20.3V30.7c0-1,0.8-1.7,1.7-1.7h24.5v-9.8H478c-4.1,0-7.4,3.3-7.4,7.4v51.3
		c0,4.2,3.4,7.5,7.5,7.5h31.2v-9.8h-25.6c-0.9,0-1.7-0.8-1.7-1.7L482.1,55.7L482.1,55.7z"/>
	<path class="st9" d="M633.5,66c0-12.5-9.8-17.7-21.6-19.4l0,0c-6.4-1-11.3-3.8-11.3-8.6c0-4.7,3.8-8.5,11.1-8.5l0,0h17.9V19.1
		h-17.9l0,0c-13.5,0-21.5,7.3-21.5,18.9c0,10.4,9.7,17.1,21.6,18.9l0,0c6.1,1.1,11.3,4.1,11.3,9.1s-3.9,9-11.2,9.1h-20.2v10.3H612
		l0,0C625.6,85.4,633.5,78,633.5,66"/>
	<path class="st9" d="M158.4,55.7h-15.7V47h15.6c4.6,0,8.3-3.7,8.3-8.3v-2.9c0-3.8-3-6.8-6.8-6.8h-21.2v-9.8H162
		c8.9,0,16.1,7.2,16.1,16.1v4.1c0,4.5-2.2,10.6-8.2,11.8l0,0l0,0c6,1.3,8.2,7.3,8.2,11.8v6.2c0,8.9-7.3,16.2-16.2,16.2h-24.4v-9.8
		h22.3c3.8,0,6.8-3,6.8-6.8v-4.9C166.6,59.4,162.9,55.7,158.4,55.7z"/>
	<path class="st9" d="M410.4,66c0-12.5-9.8-17.7-21.6-19.4l0,0c-6.4-1-11.3-3.8-11.3-8.6c0-4.7,3.8-8.5,11.1-8.5l0,0h17.9V19.1
		h-17.9l0,0c-13.5,0-21.5,7.3-21.5,18.9c0,10.4,9.7,17.1,21.6,18.9l0,0C394.8,58,400,61,400,66s-3.9,9-11.2,9.1h-20.2v10.3h20.2l0,0
		C402.5,85.4,410.4,78,410.4,66"/>
	<path class="st9" d="M307.7,66c0-12.5-9.8-17.7-21.6-19.4l0,0c-6.4-1-11.3-3.8-11.3-8.6c0-4.7,3.8-8.5,11.1-8.5l0,0h17.9V19.1
		h-17.9l0,0c-13.5,0-21.5,7.3-21.5,18.9c0,10.4,9.7,17.1,21.6,18.9l0,0c6.1,1.1,11.3,4.1,11.3,9.1s-3.9,9-11.2,9.1h-20.2v10.3h20.2
		l0,0C299.8,85.4,307.7,78,307.7,66"/>
</g>
<g id="No_trademarks_-_3_color_logo_-_light_bkgrd_copy" class="st0">
	<polygon class="st2" points="363.6,19.2 352.1,19.2 337.7,45.8 323.3,19.2 311.8,19.2 331.9,58.5 331.9,85.4 343.4,85.4 
		343.4,58.7 343.5,58.7 343.5,58.6 	"/>
	<path class="st2" d="M212.1,76L212.1,76H201V28.9h11.1c4.7,0,11.5,1.5,11.8,12.7v21.6C223.6,74.5,216.8,76,212.1,76 M212.1,19.2
		h-22.7v4.9V29v47.1v9.4H201h11.1c10.1,0,22.3-4.5,23.3-21.3l0,0V41.7C235,23.7,221.8,19.2,212.1,19.2"/>
	<polygon class="st2" points="417.3,19.2 417.3,29.1 432.8,29.1 432.8,85.4 444.3,85.4 444.3,29.1 459.9,29.1 459.9,19.2 	"/>
	<polygon class="st2" points="569.4,19.2 550.3,59.3 531.1,19.2 520.7,19.2 520.7,85.4 531.1,85.4 531.1,41 546.9,74.1 553.6,74.1 
		569.4,40.9 569.4,85.4 579.8,85.4 579.8,19.2 	"/>
	<path class="st1" d="M74.6,52.5l-2.1-27.2c-0.1-0.8,0.5-1,1.2-0.5l3.7,2.5c9.1,6.6,11.8,13.8,13.6,25.8l1.3,9.7
		c0.1,0.8-0.8,0.7-1.5,0.3l-14.5-7.7C75.3,54.9,74.6,53.6,74.6,52.5 M82.8,17.7L59.9,0.3c-1.1-0.8-3.2,0.1-3.2,1.4l0.8,53.1
		c0.1,4.5,2.5,8.5,6.5,10.4l35.7,16.1c3.6,1.6,7-1.5,6.4-5.4l-4.5-26.3C99.4,36.8,93,25.6,82.8,17.7"/>
	<path class="st2" d="M44.7,98.8L10.2,90c-1.7-0.5-1.1-1.7,0.4-2.3l2.2-0.9c3-1.1,6.3-1.4,9.4-0.5l23,6.5c1.7,0.5,5,1.4,6.4,1
		l2.6-0.7c0.6-0.2,0.3-0.8-0.7-1.1l-21.8-6.5c-3.8-1.1-6.8-5.6,1.5-9L44,72.1c4.9-1.9,13.1-1.9,19,0.6l31,12.6
		c1.9,0.8,1.7,2,0.4,2.3l-7.3,1.9c-2.8,0.7-5.8,0.8-8.6-0.1l-22.8-8c-2.1-0.7-4.7-1.7-6.4-1L47,81.2c-0.7,0.2-0.8,1-0.1,1.2L64,88.1
		c9.4,3.1,8.1,8,3.7,9.2l-7.2,1.8C54.4,100.6,50.2,100.1,44.7,98.8"/>
	<path class="st3" d="M6.3,39.5L6.3,39.5c-0.2,1.2,1,2.6,2,1.8l24.2-16.6c0.8-0.6,1.2-0.3,1.2,0.7l-0.4,5.8
		c-0.1,1.5-1.1,2.4-2.4,3.2L11.4,46.9c-1.2,0.8-2.2,2.1-2.5,3.6L7.7,58c-0.1,0.8,0.9,1.3,1.6,1L31,46.5c0.5-0.3,1.2,0.3,1.2,0.8
		l-0.4,5.6c-0.1,1.1-0.8,2-1.8,2.5L2.5,70c-1.5,0.8-1.6,1.6-1.9,3l-0.5,2.4c-0.7,4.1,2.7,7.5,6.4,5.9l35.7-16.1
		c4.1-1.9,6.5-6.3,6.6-10.8l0.8-52.2c0-1.4-2.1-2.7-3.2-1.8L15.3,24C10.3,27.7,7.4,33.4,6.3,39.5"/>
	<path class="st2" d="M482.1,55.7h20.3V47h-20.3V30.7c0-1,0.8-1.7,1.7-1.7h24.5v-9.8H478c-4.1,0-7.4,3.3-7.4,7.4v51.3
		c0,4.2,3.4,7.5,7.5,7.5h31.2v-9.8h-25.6c-0.9,0-1.7-0.8-1.7-1.7L482.1,55.7L482.1,55.7z"/>
	<path class="st2" d="M633.5,66c0-12.5-9.8-17.7-21.6-19.4l0,0c-6.4-1-11.3-3.8-11.3-8.6c0-4.7,3.8-8.5,11.1-8.5l0,0h17.9V19.1
		h-17.9l0,0c-13.5,0-21.5,7.3-21.5,18.9c0,10.4,9.7,17.1,21.6,18.9l0,0c6.1,1.1,11.3,4.1,11.3,9.1s-3.9,9-11.2,9.1h-20.2v10.3H612
		l0,0C625.6,85.4,633.5,78,633.5,66"/>
	<path class="st2" d="M158.4,55.7h-15.7V47h15.6c4.6,0,8.3-3.7,8.3-8.3v-2.9c0-3.8-3-6.8-6.8-6.8h-21.2v-9.8H162
		c8.9,0,16.1,7.2,16.1,16.1v4.1c0,4.5-2.2,10.6-8.2,11.8l0,0l0,0c6,1.3,8.2,7.3,8.2,11.8v6.2c0,8.9-7.3,16.2-16.2,16.2h-24.4v-9.8
		h22.3c3.8,0,6.8-3,6.8-6.8v-4.9C166.6,59.4,162.9,55.7,158.4,55.7z"/>
	<path class="st2" d="M410.4,66c0-12.5-9.8-17.7-21.6-19.4l0,0c-6.4-1-11.3-3.8-11.3-8.6c0-4.7,3.8-8.5,11.1-8.5l0,0h17.9V19.1
		h-17.9l0,0c-13.5,0-21.5,7.3-21.5,18.9c0,10.4,9.7,17.1,21.6,18.9l0,0C394.8,58,400,61,400,66s-3.9,9-11.2,9.1h-20.2v10.3h20.2l0,0
		C402.5,85.4,410.4,78,410.4,66"/>
	<path class="st2" d="M307.7,66c0-12.5-9.8-17.7-21.6-19.4l0,0c-6.4-1-11.3-3.8-11.3-8.6c0-4.7,3.8-8.5,11.1-8.5l0,0h17.9V19.1
		h-17.9l0,0c-13.5,0-21.5,7.3-21.5,18.9c0,10.4,9.7,17.1,21.6,18.9l0,0c6.1,1.1,11.3,4.1,11.3,9.1s-3.9,9-11.2,9.1h-20.2v10.3h20.2
		l0,0C299.8,85.4,307.7,78,307.7,66"/>
</g>
</svg>
