<svg xmlns="http://www.w3.org/2000/svg" xmlns:xlink="http://www.w3.org/1999/xlink" viewBox="0,0,256,256" width="24px" height="24px" fill-rule="nonzero"><g fill="#ffffff" fill-rule="nonzero" stroke="none" stroke-width="1" stroke-linecap="butt" stroke-linejoin="miter" stroke-miterlimit="10" stroke-dasharray="" stroke-dashoffset="0" font-family="none" font-weight="none" font-size="none" text-anchor="none" style="mix-blend-mode: normal"><g transform="scale(10.66667,10.66667)"><path d="M19.1,4.9c-1.9,-1.9 -4.4,-2.9 -7.1,-2.9c-5.5,0 -10,4.5 -10,10c0,1.8 0.5,3.5 1.3,5l-1.3,5l5.2,-1.2c1.5,0.8 3.1,1.2 4.8,1.2c5.5,0 10,-4.5 10,-10c0,-2.7 -1,-5.2 -2.9,-7.1zM16.9,15.6c-0.2,0.6 -1.2,1.1 -1.7,1.2c-0.5,0 -0.9,0.2 -3,-0.6c-2.5,-1 -4.1,-3.6 -4.3,-3.8c-0.1,-0.2 -1,-1.4 -1,-2.6c0,-1.2 0.6,-1.8 0.9,-2.1c0.2,-0.3 0.5,-0.3 0.7,-0.3c0.2,0 0.3,0 0.5,0c0.2,0 0.4,0 0.6,0.4c0.2,0.5 0.7,1.7 0.8,1.9c0.1,0.2 0.1,0.3 0,0.4c-0.1,0.1 -0.1,0.3 -0.2,0.4c-0.1,0.1 -0.3,0.3 -0.4,0.4c-0.1,0.1 -0.3,0.3 -0.1,0.5c0.1,0.3 0.6,1.1 1.4,1.7c1,0.9 1.8,1.1 2,1.2c0.3,0.1 0.4,0.1 0.5,-0.1c0.1,-0.2 0.6,-0.7 0.8,-1c0.2,-0.3 0.3,-0.2 0.6,-0.1c0.3,0.1 1.5,0.7 1.7,0.8c0.3,0.1 0.4,0.2 0.5,0.3c-0.1,0.3 -0.1,0.8 -0.3,1.4z"></path></g></g></svg>