<?xml version="1.0" encoding="UTF-8" standalone="no"?>
<svg
   xmlns:dc="http://purl.org/dc/elements/1.1/"
   xmlns:cc="http://creativecommons.org/ns#"
   xmlns:rdf="http://www.w3.org/1999/02/22-rdf-syntax-ns#"
   xmlns:svg="http://www.w3.org/2000/svg"
   xmlns="http://www.w3.org/2000/svg"
   xmlns:sodipodi="http://sodipodi.sourceforge.net/DTD/sodipodi-0.dtd"
   xmlns:inkscape="http://www.inkscape.org/namespaces/inkscape"
   version="1.1"
   id="svg10"
   width="512"
   height="512"
   viewBox="0 0 512 512"
   sodipodi:docname="led.svg"
   inkscape:version="1.0.1 (3bc2e813f5, 2020-09-07)"
   inkscape:export-filename="C:\Users\AC\Documents\7electronics\acho087.github.io\img\GREENLED.png"
   inkscape:export-xdpi="98.029999"
   inkscape:export-ydpi="98.029999">
  <metadata
     id="metadata16">
    <rdf:RDF>
      <cc:Work
         rdf:about="">
        <dc:format>image/svg+xml</dc:format>
        <dc:type
           rdf:resource="http://purl.org/dc/dcmitype/StillImage" />
        <dc:title />
      </cc:Work>
    </rdf:RDF>
  </metadata>
  <defs
     id="defs14" />
  <sodipodi:namedview
     pagecolor="#000000"
     bordercolor="#666666"
     borderopacity="1"
     objecttolerance="10"
     gridtolerance="10"
     guidetolerance="10"
     inkscape:pageopacity="0"
     inkscape:pageshadow="2"
     inkscape:window-width="1920"
     inkscape:window-height="1017"
     id="namedview12"
     showgrid="false"
     showborder="true"
     inkscape:pagecheckerboard="true"
     inkscape:zoom="1.015085"
     inkscape:cx="133.53123"
     inkscape:cy="301.32491"
     inkscape:window-x="-8"
     inkscape:window-y="32"
     inkscape:window-maximized="1"
     inkscape:current-layer="g281"
     inkscape:document-rotation="0" />
  <g
     inkscape:groupmode="layer"
     inkscape:label="LED RED"
     id="g34"
     style="display:none;opacity:1">
    <g
       id="g294"
       style="fill:#ff0000">
      <path
         style="display:inline;opacity:1;fill:#ff0000"
         d="m 280.7415,450.92109 v -52 h -23 -23 v 36 36 h -9 -9 v -36 -36 h -25.63398 c -17.20323,0 -26.9877,-0.39996 -29.75,-1.21611 -5.49284,-1.62292 -13.77699,-9.90706 -15.3999,-15.3999 -1.57322,-5.32465 -1.57322,-27.44331 0,-32.76796 2.30528,-7.80236 13.52385,-16.61603 21.1499,-16.61603 1.49696,0 1.63398,-6.08326 1.63398,-72.54215 0,-62.37094 0.22269,-73.62288 1.58823,-80.25 8.62749,-41.87005 44.64133,-71.20786 87.41177,-71.20786 42.77044,0 78.78427,29.33781 87.41177,71.20786 1.3655,6.62711 1.5882,17.87906 1.5882,80.25 0,66.45889 0.137,72.54215 1.634,72.54215 7.6261,0 18.8446,8.81367 21.1499,16.61603 1.5732,5.32465 1.5732,27.44331 0,32.76796 -1.6229,5.49284 -9.9071,13.77698 -15.3999,15.3999 -2.7623,0.81615 -12.5468,1.21611 -29.75,1.21611 H 298.7415 v 52 52 h -9 -9 z"
         id="path32-4" />
      <g
         id="g197"
         style="fill:#ff0000">
        <path
           style="display:inline;opacity:1;fill:#ff0000"
           d="m 248.7415,45.921083 v -25 h 9 9 v 25 25 h -9 -9 z"
           id="path102" />
        <path
           style="display:inline;opacity:1;fill:#ff0000"
           d="m 392.46017,127.1421 c -3.1453,-3.17845 -5.7187,-6.22091 -5.7187,-6.76104 0,-1.62039 33.397,-34.459977 35.0449,-34.459977 1.947,0 11.9551,10.081247 11.9551,12.042477 0,1.6413 -32.9202,34.95754 -34.542,34.95754 -0.5613,0 -3.594,-2.60055 -6.7393,-5.779 z"
           id="path98" />
        <path
           style="display:inline;opacity:1;fill:#ff0000"
           d="m 98.480459,116.16037 c -9.20643,-9.21841 -16.73896,-17.446277 -16.73896,-18.284168 0,-1.947004 10.08124,-11.955119 12.04247,-11.955119 1.60281,0 34.957531,32.900737 34.957531,34.481727 0,1.30764 -11.17613,12.51829 -12.47974,12.51829 -0.57328,0 -8.57487,-7.54233 -17.781301,-16.76073 z"
           id="path94" />
        <path
           style="display:inline;opacity:1;fill:#ff0000"
           d="m 448.74147,261.9211 v -9 h 25 25 v 9 9 h -25 -25 z"
           id="path90" />
        <path
           style="display:inline;opacity:1;fill:#ff0000"
           d="m 16.741499,261.9211 v -9 h 25 25 v 9 9 h -25 -25 z"
           id="path86" />
      </g>
      <path
         style="display:inline;opacity:1;fill:#ff0000"
         d="m 192.7415,194.08105 c 0,-13.95147 7.54662,-30.68009 19.01325,-42.14671 11.46662,-11.46663 28.19524,-19.01325 42.14671,-19.01325 h 4.84004 v 8.8628 8.8628 l -7.34819,1.18539 c -20.65483,3.33199 -36.3981,19.01942 -39.71373,39.57289 l -1.21248,7.51612 h -8.8628 -8.8628 z"
         id="path78" />
    </g>
    <path
       style="display:inline;opacity:1;fill:#000000"
       d="m 280.7415,305.92109 v -27 h -5.18173 c -5.12749,0 -5.26752,0.0837 -13.37781,8 -7.24558,7.07223 -8.62378,8 -11.88402,8 -5.51456,0 -7.22849,-1.39869 -11.07606,-9.03895 -1.92804,-3.82858 -3.72487,-6.96105 -3.99295,-6.96105 -0.26809,0 -0.48743,12.15 -0.48743,27 v 27 h 23 23 z"
       id="path84" />
    <g
       id="g321"
       style="fill:#800000">
      <path
         style="display:inline;opacity:1;fill:#800000"
         d="m 184.7415,261.58105 c 0,-83.05492 -0.20322,-80.62331 8.16184,-97.65995 3.38112,-6.88615 5.89796,-10.22443 13.25585,-17.58231 7.35789,-7.35789 10.69617,-9.87473 17.58231,-13.25585 22.45444,-11.02522 45.79482,-11.01099 68,0.0414 12.03974,5.99267 24.80407,18.75697 30.79667,30.79671 8.4004,16.87701 8.2033,14.53073 8.2033,97.66 v 73.34004 h -16.9621 -16.96218 l -0.28784,-33.96546 c -0.26311,-31.04588 -0.44135,-34.11885 -2.07356,-35.75 -1.55428,-1.55325 -3.72021,-1.78453 -16.71184,-1.78453 h -14.92612 l -4.82251,4.75 c -2.65239,2.6125 -5.36042,4.75 -6.01785,4.75 -0.65743,0 -2.12286,-1.81813 -3.25653,-4.0403 -2.67773,-5.24879 -5.40211,-6.19353 -16.69536,-5.78946 -7.2069,0.25787 -9.60483,0.71877 -11,2.11429 -1.63007,1.63048 -1.80893,4.71664 -2.07193,35.75 l -0.28784,33.96546 H 201.70365 184.7415 Z"
         id="path74" />
      <path
         style="display:inline;opacity:1;fill:#800000"
         d="m 232.7415,305.92109 v -29 h 2.48743 c 2.07851,0 3.06997,1.15678 6.03096,7.03652 5.7281,11.37449 8.80308,11.38215 19.95479,0.0497 l 6.97318,-7.08621 h 7.27682 7.27682 v 29 29 h -25 -25 v -29 z"
         id="path82" />
      <path
         style="display:inline;opacity:1;fill:#800000"
         d="m 163.19605,380.46654 c -2.33539,-2.33538 -2.45455,-3.04152 -2.45455,-14.54545 0,-11.50393 0.11916,-12.21006 2.45455,-14.54545 l 2.45454,-2.45455 h 92.09091 92.09087 l 2.4546,2.45455 c 2.3354,2.33538 2.4545,3.04152 2.4545,14.54545 0,11.50393 -0.1191,12.21007 -2.4545,14.54545 l -2.4546,2.45455 H 257.7415 165.65059 Z"
         id="path70" />
    </g>
    <path
       style="display:inline;opacity:1;fill:#ff0000"
       d="m 208.7415,193.60259 c 0,-9.26398 6.69007,-23.17376 14.92232,-31.02599 8.14166,-7.76583 20.97692,-13.65551 29.75918,-13.65551 h 3.3185 v -7.0879 -7.0879 l -4.25,0.63427 c -13.11429,1.95716 -20.93893,4.87897 -30.55648,11.41011 -14.58163,9.9022 -23.70125,25.55285 -26.73505,45.88142 l -0.63427,4.25 h 7.0879 7.0879 z"
       id="path80" />
  </g>
  <g
     inkscape:groupmode="layer"
     inkscape:label="LED OFF"
     id="g239"
     style="display:none;opacity:1">
    <path
       style="display:inline;opacity:1;fill:#e6e6e6"
       d="m 280.7415,450.92109 v -52 h -23 -23 v 36 36 h -9 -9 v -36 -36 h -25.63398 c -17.20323,0 -26.9877,-0.39996 -29.75,-1.21611 -5.49284,-1.62292 -13.77699,-9.90706 -15.3999,-15.3999 -1.57322,-5.32465 -1.57322,-27.44331 0,-32.76796 2.30528,-7.80236 13.52385,-16.61603 21.1499,-16.61603 1.49696,0 1.63398,-6.08326 1.63398,-72.54215 0,-62.37094 0.22269,-73.62288 1.58823,-80.25 8.62749,-41.87005 44.64133,-71.20786 87.41177,-71.20786 42.77044,0 78.78427,29.33781 87.41177,71.20786 1.3655,6.62711 1.5882,17.87906 1.5882,80.25 0,66.45889 0.137,72.54215 1.634,72.54215 7.6261,0 18.8446,8.81367 21.1499,16.61603 1.5732,5.32465 1.5732,27.44331 0,32.76796 -1.6229,5.49284 -9.9071,13.77698 -15.3999,15.3999 -2.7623,0.81615 -12.5468,1.21611 -29.75,1.21611 H 298.7415 v 52 52 h -9 -9 z"
       id="path199" />
    <path
       style="display:inline;opacity:1;fill:#000000"
       d="m 280.7415,305.92109 v -27 h -5.18173 c -5.12749,0 -5.26752,0.0837 -13.37781,8 -7.24558,7.07223 -8.62378,8 -11.88402,8 -5.51456,0 -7.22849,-1.39869 -11.07606,-9.03895 -1.92804,-3.82858 -3.72487,-6.96105 -3.99295,-6.96105 -0.26809,0 -0.48743,12.15 -0.48743,27 v 27 h 23 23 z"
       id="path223" />
    <path
       style="display:inline;opacity:1;fill:#000000"
       d="m 232.7415,305.92109 v -29 h 2.48743 c 2.07851,0 3.06997,1.15678 6.03096,7.03652 5.7281,11.37449 8.80308,11.38215 19.95479,0.0497 l 6.97318,-7.08621 h 7.27682 7.27682 v 29 29 h -25 -25 v -29 z"
       id="path225" />
    <path
       style="display:inline;opacity:1;fill:#000000"
       d="m 208.7415,193.60259 c 0,-9.26398 6.69007,-23.17376 14.92232,-31.02599 8.14166,-7.76583 20.97692,-13.65551 29.75918,-13.65551 h 3.3185 v -7.0879 -7.0879 l -4.25,0.63427 c -13.11429,1.95716 -20.93893,4.87897 -30.55648,11.41011 -14.58163,9.9022 -23.70125,25.55285 -26.73505,45.88142 l -0.63427,4.25 h 7.0879 7.0879 z"
       id="path227" />
    <path
       style="display:inline;opacity:1;fill:#000000"
       d="m 192.7415,194.08105 c 0,-13.95147 7.54662,-30.68009 19.01325,-42.14671 11.46662,-11.46663 28.19524,-19.01325 42.14671,-19.01325 h 4.84004 v 8.8628 8.8628 l -7.34819,1.18539 c -20.65483,3.33199 -36.3981,19.01942 -39.71373,39.57289 l -1.21248,7.51612 h -8.8628 -8.8628 z"
       id="path229" />
    <path
       style="display:inline;opacity:1;fill:#000000"
       d="m 216.7415,299.37565 v -33.54547 l 2.45455,-2.45454 c 2.32924,-2.32925 3.05806,-2.45455 14.27749,-2.45455 13.06258,0 15.07076,0.69548 17.25844,5.97701 l 1.26611,3.05666 4.82886,-4.51683 4.82887,-4.51684 h 16.08829 c 15.74807,0 16.14021,0.0519 18.54284,2.45455 l 2.45455,2.45454 v 33.54546 33.54545 h 15.04807 15.0481 l -0.356,-73.25 c -0.3991,-82.1069 0.011,-77.30465 -8.0034,-93.75 -3.3701,-6.9155 -5.8288,-10.18651 -13.1895,-17.54726 -7.35792,-7.35791 -10.63443,-9.82116 -17.54727,-13.19183 -11.88197,-5.79362 -19.41448,-7.57722 -32,-7.57722 -12.58552,0 -20.11803,1.7836 -32,7.57722 -6.91284,3.37067 -10.18935,5.83392 -17.54726,13.19183 -7.36075,7.36075 -9.81943,10.63176 -13.18953,17.54726 -8.01426,16.44535 -7.60429,11.6431 -8.00337,93.75 l -0.35603,73.25 h 15.04809 15.0481 z"
       id="path231" />
    <path
       style="display:inline;opacity:1;fill:#000000"
       d="m 184.7415,261.58105 c 0,-83.05492 -0.20322,-80.62331 8.16184,-97.65995 3.38112,-6.88615 5.89796,-10.22443 13.25585,-17.58231 7.35789,-7.35789 10.69617,-9.87473 17.58231,-13.25585 22.45444,-11.02522 45.79482,-11.01099 68,0.0414 12.03974,5.99267 24.80407,18.75697 30.79667,30.79671 8.4004,16.87701 8.2033,14.53073 8.2033,97.66 v 73.34004 h -16.9621 -16.96218 l -0.28784,-33.96546 c -0.26311,-31.04588 -0.44135,-34.11885 -2.07356,-35.75 -1.55428,-1.55325 -3.72021,-1.78453 -16.71184,-1.78453 h -14.92612 l -4.82251,4.75 c -2.65239,2.6125 -5.36042,4.75 -6.01785,4.75 -0.65743,0 -2.12286,-1.81813 -3.25653,-4.0403 -2.67773,-5.24879 -5.40211,-6.19353 -16.69536,-5.78946 -7.2069,0.25787 -9.60483,0.71877 -11,2.11429 -1.63007,1.63048 -1.80893,4.71664 -2.07193,35.75 l -0.28784,33.96546 H 201.70365 184.7415 Z"
       id="path233" />
    <path
       style="display:inline;opacity:1;fill:#000000"
       d="m 350.45597,378.63538 c 2.642,-2.64227 2.6418,-22.78661 -2e-4,-25.42858 -1.6881,-1.6881 -6.7562,-1.78571 -92.71427,-1.78571 -85.92647,0 -91.02681,0.0981 -92.71429,1.78408 -1.39702,1.39576 -1.85748,3.79008 -2.11546,11 -0.36653,10.24397 0.68949,14.31914 4.06521,15.68766 1.32922,0.53887 39.31898,0.83756 91.97906,0.72316 84.64395,-0.18387 89.81545,-0.29583 91.49995,-1.98061 z"
       id="path235" />
    <path
       style="display:inline;opacity:1;fill:#000000"
       d="m 163.19605,380.46654 c -2.33539,-2.33538 -2.45455,-3.04152 -2.45455,-14.54545 0,-11.50393 0.11916,-12.21006 2.45455,-14.54545 l 2.45454,-2.45455 h 92.09091 92.09087 l 2.4546,2.45455 c 2.3354,2.33538 2.4545,3.04152 2.4545,14.54545 0,11.50393 -0.1191,12.21007 -2.4545,14.54545 l -2.4546,2.45455 H 257.7415 165.65059 Z"
       id="path237" />
  </g>
  <g
     inkscape:groupmode="layer"
     inkscape:label="LED BLUE"
     id="g281"
     style="display:inline;opacity:1">
    <path
       style="display:inline;opacity:1;fill:#00ff00"
       d="m 280.7415,450.92109 v -52 h -23 -23 v 36 36 h -9 -9 v -36 -36 h -25.63398 c -17.20323,0 -26.9877,-0.39996 -29.75,-1.21611 -5.49284,-1.62292 -13.77699,-9.90706 -15.3999,-15.3999 -1.57322,-5.32465 -1.57322,-27.44331 0,-32.76796 2.30528,-7.80236 13.52385,-16.61603 21.1499,-16.61603 1.49696,0 1.63398,-6.08326 1.63398,-72.54215 0,-62.37094 0.22269,-73.62288 1.58823,-80.25 8.62749,-41.87005 44.64133,-71.20786 87.41177,-71.20786 42.77044,0 78.78427,29.33781 87.41177,71.20786 1.3655,6.62711 1.5882,17.87906 1.5882,80.25 0,66.45889 0.137,72.54215 1.634,72.54215 7.6261,0 18.8446,8.81367 21.1499,16.61603 1.5732,5.32465 1.5732,27.44331 0,32.76796 -1.6229,5.49284 -9.9071,13.77698 -15.3999,15.3999 -2.7623,0.81615 -12.5468,1.21611 -29.75,1.21611 H 298.7415 v 52 52 h -9 -9 z"
       id="path241" />
    <path
       style="display:inline;opacity:1;fill:#000000"
       d="m 264.7415,45.921083 v -23 h -7 -7 v 23 23 h 7 7 z"
       id="path243" />
    <path
       style="display:inline;opacity:1;fill:#000000"
       d="m 426.48227,93.188178 -4.7422,-4.742217 -15.9881,15.964619 -15.988,15.96463 4.7179,4.78995 4.7179,4.78994 16.0124,-16.01235 16.0123,-16.012355 z"
       id="path245" />
    <path
       style="display:inline;opacity:1;fill:#000000"
       d="m 109.76315,104.45043 -16.012341,-16.012343 -4.74222,4.742217 -4.74222,4.742216 15.964621,15.98805 15.96462,15.98806 4.78995,-4.71793 4.78994,-4.71792 z"
       id="path247" />
    <path
       style="display:inline;opacity:1;fill:#000000"
       d="m 496.74147,261.9211 v -7 h -23 -23 v 7 7 h 23 23 z"
       id="path249" />
    <path
       style="display:inline;opacity:1;fill:#000000"
       d="m 64.741499,261.9211 v -7 h -23 -23 v 7 7 h 23 23 z"
       id="path251" />
    <g
       id="g263"
       style="fill:#00ff00">
      <path
         style="display:inline;opacity:1;fill:#00ff00"
         d="m 248.7415,45.921083 v -25 h 9 9 v 25 25 h -9 -9 z"
         id="path253" />
      <path
         style="display:inline;opacity:1;fill:#00ff00"
         d="m 392.46017,127.1421 c -3.1453,-3.17845 -5.7187,-6.22091 -5.7187,-6.76104 0,-1.62039 33.397,-34.459977 35.0449,-34.459977 1.947,0 11.9551,10.081247 11.9551,12.042477 0,1.6413 -32.9202,34.95754 -34.542,34.95754 -0.5613,0 -3.594,-2.60055 -6.7393,-5.779 z"
         id="path255" />
      <path
         style="display:inline;opacity:1;fill:#00ff00"
         d="m 98.480459,116.16037 c -9.20643,-9.21841 -16.73896,-17.446277 -16.73896,-18.284168 0,-1.947004 10.08124,-11.955119 12.04247,-11.955119 1.60281,0 34.957531,32.900737 34.957531,34.481727 0,1.30764 -11.17613,12.51829 -12.47974,12.51829 -0.57328,0 -8.57487,-7.54233 -17.781301,-16.76073 z"
         id="path257" />
      <path
         style="display:inline;opacity:1;fill:#00ff00"
         d="m 448.74147,261.9211 v -9 h 25 25 v 9 9 h -25 -25 z"
         id="path259" />
      <path
         style="display:inline;opacity:1;fill:#00ff00"
         d="m 16.741499,261.9211 v -9 h 25 25 v 9 9 h -25 -25 z"
         id="path261" />
    </g>
    <path
       style="display:inline;opacity:1;fill:#000000"
       d="m 280.7415,305.92109 v -27 h -5.18173 c -5.12749,0 -5.26752,0.0837 -13.37781,8 -7.24558,7.07223 -8.62378,8 -11.88402,8 -5.51456,0 -7.22849,-1.39869 -11.07606,-9.03895 -1.92804,-3.82858 -3.72487,-6.96105 -3.99295,-6.96105 -0.26809,0 -0.48743,12.15 -0.48743,27 v 27 h 23 23 z"
       id="path265" />
    <path
       style="display:inline;opacity:1;fill:#000000"
       d="m 208.7415,193.60259 c 0,-9.26398 6.69007,-23.17376 14.92232,-31.02599 8.14166,-7.76583 20.97692,-13.65551 29.75918,-13.65551 h 3.3185 v -7.0879 -7.0879 l -4.25,0.63427 c -13.11429,1.95716 -20.93893,4.87897 -30.55648,11.41011 -14.58163,9.9022 -23.70125,25.55285 -26.73505,45.88142 l -0.63427,4.25 h 7.0879 7.0879 z"
       id="path269" />
    <g
       id="g326"
       style="fill:#008000">
      <path
         style="display:inline;opacity:1;fill:#008000"
         d="m 232.7415,305.92109 v -29 h 2.48743 c 2.07851,0 3.06997,1.15678 6.03096,7.03652 5.7281,11.37449 8.80308,11.38215 19.95479,0.0497 l 6.97318,-7.08621 h 7.27682 7.27682 v 29 29 h -25 -25 v -29 z"
         id="path267" />
      <path
         style="display:inline;opacity:1;fill:#008000"
         d="m 184.7415,261.58105 c 0,-83.05492 -0.20322,-80.62331 8.16184,-97.65995 3.38112,-6.88615 5.89796,-10.22443 13.25585,-17.58231 7.35789,-7.35789 10.69617,-9.87473 17.58231,-13.25585 22.45444,-11.02522 45.79482,-11.01099 68,0.0414 12.03974,5.99267 24.80407,18.75697 30.79667,30.79671 8.4004,16.87701 8.2033,14.53073 8.2033,97.66 v 73.34004 h -16.9621 -16.96218 l -0.28784,-33.96546 c -0.26311,-31.04588 -0.44135,-34.11885 -2.07356,-35.75 -1.55428,-1.55325 -3.72021,-1.78453 -16.71184,-1.78453 h -14.92612 l -4.82251,4.75 c -2.65239,2.6125 -5.36042,4.75 -6.01785,4.75 -0.65743,0 -2.12286,-1.81813 -3.25653,-4.0403 -2.67773,-5.24879 -5.40211,-6.19353 -16.69536,-5.78946 -7.2069,0.25787 -9.60483,0.71877 -11,2.11429 -1.63007,1.63048 -1.80893,4.71664 -2.07193,35.75 l -0.28784,33.96546 H 201.70365 184.7415 Z"
         id="path275" />
      <path
         style="display:inline;opacity:1;fill:#008000"
         d="m 163.19605,380.46654 c -2.33539,-2.33538 -2.45455,-3.04152 -2.45455,-14.54545 0,-11.50393 0.11916,-12.21006 2.45455,-14.54545 l 2.45454,-2.45455 h 92.09091 92.09087 l 2.4546,2.45455 c 2.3354,2.33538 2.4545,3.04152 2.4545,14.54545 0,11.50393 -0.1191,12.21007 -2.4545,14.54545 l -2.4546,2.45455 H 257.7415 165.65059 Z"
         id="path279" />
    </g>
    <path
       style="display:inline;opacity:1;fill:#00ff00"
       d="m 192.7415,194.08105 c 0,-13.95147 7.54662,-30.68009 19.01325,-42.14671 11.46662,-11.46663 28.19524,-19.01325 42.14671,-19.01325 h 4.84004 v 8.8628 8.8628 l -7.34819,1.18539 c -20.65483,3.33199 -36.3981,19.01942 -39.71373,39.57289 l -1.21248,7.51612 h -8.8628 -8.8628 z"
       id="path271" />
  </g>
</svg>
